<?xml version="1.0" encoding="UTF-8"?>
<svg xmlns="http://www.w3.org/2000/svg" xmlns:xlink="http://www.w3.org/1999/xlink" width="678px" height="405px" viewBox="0 0 677 405" version="1.1">
<g id="surface1">
<path style=" stroke:none;fill-rule:nonzero;fill:rgb(94.901961%,94.901961%,94.901961%);fill-opacity:1;" d="M 518.328125 400.527344 C 509.660156 393.195312 504.394531 381.617188 505.777344 370.34375 C 507.15625 359.070312 515.707031 348.707031 526.800781 346.3125 C 537.894531 343.917969 550.539062 350.546875 553.90625 361.390625 C 555.761719 340.480469 557.898438 318.695312 569.003906 300.890625 C 579.0625 284.769531 596.480469 273.230469 615.359375 271.167969 C 634.238281 269.101562 654.113281 276.898438 665.886719 291.8125 C 677.660156 306.726562 680.542969 328.40625 672.296875 345.527344 C 666.222656 358.140625 655.03125 367.527344 643.304688 375.164062 C 605.414062 399.632812 559.972656 409.585938 515.332031 403.183594 Z M 518.328125 400.527344 "/>
<path style=" stroke:none;fill-rule:nonzero;fill:rgb(100%,100%,100%);fill-opacity:1;" d="M 647.21875 277.332031 C 631.640625 290.03125 617.351562 304.230469 604.554688 319.734375 C 584.527344 343.910156 568.320312 371.015625 556.5 400.105469 C 555.636719 402.226562 559.078125 403.152344 559.933594 401.050781 C 579.273438 353.773438 610.148438 312.101562 649.734375 279.851562 C 651.511719 278.402344 648.980469 275.894531 647.21875 277.332031 Z M 647.21875 277.332031 "/>
<path style=" stroke:none;fill-rule:nonzero;fill:rgb(94.901961%,94.901961%,94.901961%);fill-opacity:1;" d="M 217.9375 398.535156 C 229.84375 388.46875 237.074219 372.5625 235.175781 357.078125 C 233.28125 341.59375 221.535156 327.359375 206.300781 324.074219 C 191.0625 320.785156 173.695312 329.886719 169.070312 344.78125 C 166.523438 316.0625 163.585938 286.140625 148.332031 261.683594 C 134.519531 239.539062 110.59375 223.695312 84.664062 220.859375 C 58.734375 218.023438 31.433594 228.730469 15.265625 249.214844 C -0.90625 269.699219 -4.867188 299.476562 6.460938 322.996094 C 14.804688 340.320312 30.175781 353.210938 46.28125 363.699219 C 97.660156 397.164062 161.398438 411.121094 222.046875 402.1875 "/>
<path style=" stroke:none;fill-rule:nonzero;fill:rgb(100%,100%,100%);fill-opacity:1;" d="M 40.90625 229.324219 C 62.300781 246.765625 81.925781 266.273438 99.503906 287.566406 C 117.082031 308.832031 132.558594 331.757812 145.714844 356.019531 C 153.070312 369.625 159.675781 383.625 165.503906 397.957031 C 166.691406 400.871094 161.964844 402.140625 160.789062 399.257812 C 150.464844 373.996094 137.691406 349.804688 122.652344 327.035156 C 107.6875 304.351562 90.554688 283.171875 71.503906 263.796875 C 60.726562 252.84375 49.359375 242.492188 37.445312 232.785156 C 35.003906 230.796875 38.484375 227.351562 40.90625 229.324219 Z M 40.90625 229.324219 "/>
<path style=" stroke:none;fill-rule:nonzero;fill:rgb(94.901961%,94.901961%,94.901961%);fill-opacity:1;" d="M 485.960938 404.222656 L 201.933594 404.222656 L 201.933594 112.542969 C 201.933594 50.488281 252.375 0 314.375 0 L 373.515625 0 C 435.519531 0 485.960938 50.488281 485.960938 112.542969 Z M 485.960938 404.222656 "/>
<path style=" stroke:none;fill-rule:nonzero;fill:rgb(80%,80%,80%);fill-opacity:1;" d="M 426.820312 404.222656 L 201.933594 404.222656 L 201.933594 112.542969 C 201.871094 88.765625 209.394531 65.585938 223.40625 46.382812 C 223.921875 45.679688 224.4375 44.984375 224.96875 44.296875 C 231.746094 35.398438 239.8125 27.5625 248.902344 21.046875 C 249.414062 20.671875 249.929688 20.304688 250.453125 19.9375 C 258.058594 14.671875 266.285156 10.367188 274.945312 7.121094 C 275.457031 6.925781 275.980469 6.730469 276.503906 6.542969 C 284.335938 3.746094 292.457031 1.828125 300.710938 0.828125 C 301.222656 0.757812 301.75 0.703125 302.273438 0.648438 C 310.320312 -0.210938 318.433594 -0.210938 326.480469 0.648438 C 327.003906 0.703125 327.53125 0.757812 328.046875 0.828125 C 336.300781 1.828125 344.417969 3.746094 352.25 6.542969 C 352.773438 6.730469 353.296875 6.925781 353.8125 7.121094 C 362.363281 10.324219 370.496094 14.566406 378.019531 19.75 C 378.539062 20.109375 379.0625 20.476562 379.578125 20.84375 C 384.671875 24.484375 389.457031 28.539062 393.882812 32.964844 C 397.433594 36.519531 400.742188 40.304688 403.785156 44.296875 C 404.316406 44.984375 404.832031 45.679688 405.347656 46.382812 C 419.359375 65.585938 426.882812 88.765625 426.820312 112.542969 Z M 426.820312 404.222656 "/>
<path style=" stroke:none;fill-rule:nonzero;fill:rgb(95.294118%,47.843137%,20.392157%);fill-opacity:1;" d="M 420.984375 261.304688 C 420.984375 268.183594 415.410156 273.765625 408.535156 273.765625 C 401.65625 273.765625 396.082031 268.183594 396.082031 261.304688 C 396.082031 254.421875 401.65625 248.839844 408.535156 248.839844 C 415.410156 248.839844 420.984375 254.421875 420.984375 261.304688 Z M 420.984375 261.304688 "/>
<path style=" stroke:none;fill-rule:nonzero;fill:rgb(100%,72.156863%,72.156863%);fill-opacity:1;" d="M 462.695312 395.484375 L 453.152344 395.484375 L 448.613281 358.65625 L 462.695312 358.65625 Z M 462.695312 395.484375 "/>
<path style=" stroke:none;fill-rule:nonzero;fill:rgb(18.431373%,18.039216%,25.490196%);fill-opacity:1;" d="M 446.339844 392.757812 L 464.738281 392.757812 L 464.738281 404.351562 L 434.753906 404.351562 C 434.753906 397.949219 439.941406 392.757812 446.339844 392.757812 Z M 446.339844 392.757812 "/>
<path style=" stroke:none;fill-rule:nonzero;fill:rgb(100%,72.156863%,72.156863%);fill-opacity:1;" d="M 510.160156 395.484375 L 500.621094 395.484375 L 496.082031 358.65625 L 510.164062 358.65625 Z M 510.160156 395.484375 "/>
<path style=" stroke:none;fill-rule:nonzero;fill:rgb(18.431373%,18.039216%,25.490196%);fill-opacity:1;" d="M 493.804688 392.757812 L 512.207031 392.757812 L 512.207031 404.351562 L 482.222656 404.351562 C 482.222656 397.949219 487.410156 392.757812 493.808594 392.757812 Z M 493.804688 392.757812 "/>
<path style=" stroke:none;fill-rule:nonzero;fill:rgb(100%,72.156863%,72.156863%);fill-opacity:1;" d="M 414.835938 263.773438 C 413.445312 261.722656 413.035156 259.164062 413.710938 256.78125 C 414.390625 254.398438 416.085938 252.441406 418.34375 251.433594 L 450.777344 161.96875 L 466.734375 170.683594 L 429.707031 256.179688 C 431.179688 260.179688 429.433594 264.648438 425.640625 266.585938 C 421.847656 268.523438 417.203125 267.3125 414.835938 263.773438 Z M 414.835938 263.773438 "/>
<path style=" stroke:none;fill-rule:nonzero;fill:rgb(100%,72.156863%,72.156863%);fill-opacity:1;" d="M 505.289062 280.582031 C 503.140625 279.351562 501.652344 277.230469 501.214844 274.792969 C 500.78125 272.355469 501.449219 269.851562 503.035156 267.953125 L 492.992188 173.316406 L 511.152344 174.144531 L 515.328125 267.234375 C 518.402344 270.179688 518.792969 274.964844 516.230469 278.371094 C 513.671875 281.777344 508.96875 282.726562 505.289062 280.582031 Z M 505.289062 280.582031 "/>
<path style=" stroke:none;fill-rule:nonzero;fill:rgb(100%,72.156863%,72.156863%);fill-opacity:1;" d="M 495.429688 126.269531 C 495.429688 136.832031 486.871094 145.398438 476.316406 145.398438 C 465.761719 145.398438 457.203125 136.832031 457.203125 126.269531 C 457.203125 115.703125 465.761719 107.140625 476.316406 107.140625 C 486.871094 107.140625 495.429688 115.703125 495.429688 126.269531 Z M 495.429688 126.269531 "/>
<path style=" stroke:none;fill-rule:nonzero;fill:rgb(95.294118%,47.843137%,20.392157%);fill-opacity:1;" d="M 505.167969 259.058594 L 447.546875 259.058594 L 447.613281 258.609375 C 447.71875 257.9375 457.882812 191.289062 450.386719 169.480469 C 448.828125 165.042969 450.867188 160.144531 455.109375 158.125 C 465.828125 153.074219 486.398438 146.851562 503.761719 161.945312 C 508.941406 166.523438 511.667969 173.273438 511.121094 180.167969 Z M 505.167969 259.058594 "/>
<path style=" stroke:none;fill-rule:nonzero;fill:rgb(95.294118%,47.843137%,20.392157%);fill-opacity:1;" d="M 458.613281 201.136719 L 432.671875 195.871094 L 444.832031 167.03125 C 446.347656 161.214844 452.277344 157.722656 458.09375 159.222656 C 463.90625 160.726562 467.410156 166.65625 465.921875 172.480469 Z M 458.613281 201.136719 "/>
<path style=" stroke:none;fill-rule:nonzero;fill:rgb(95.294118%,47.843137%,20.392157%);fill-opacity:1;" d="M 491.835938 210.917969 L 490.277344 175.136719 C 489.09375 168.410156 492.941406 162.050781 498.859375 161.011719 C 504.777344 159.976562 510.554688 164.640625 511.742188 171.417969 L 517.605469 204.851562 Z M 491.835938 210.917969 "/>
<path style=" stroke:none;fill-rule:nonzero;fill:rgb(18.431373%,18.039216%,25.490196%);fill-opacity:1;" d="M 503.25 254.773438 C 512.519531 290.117188 513.53125 335.050781 511.03125 384.0625 L 498.582031 382.503906 L 476.011719 289.042969 L 463.5625 384.0625 L 449.554688 383.285156 C 445.371094 331.859375 441.296875 287.707031 448 258.667969 Z M 503.25 254.773438 "/>
<path style=" stroke:none;fill-rule:nonzero;fill:rgb(18.431373%,18.039216%,25.490196%);fill-opacity:1;" d="M 488.910156 141.050781 C 485.34375 144.855469 478.722656 142.8125 478.257812 137.621094 C 478.222656 137.214844 478.222656 136.8125 478.265625 136.40625 C 478.507812 134.109375 479.832031 132.019531 479.515625 129.589844 C 479.445312 128.984375 479.21875 128.410156 478.863281 127.917969 C 476.019531 124.109375 469.351562 129.621094 466.667969 126.171875 C 465.027344 124.058594 466.957031 120.730469 465.695312 118.367188 C 464.03125 115.25 459.097656 116.789062 456.003906 115.082031 C 452.5625 113.179688 452.769531 107.894531 455.035156 104.679688 C 457.796875 100.761719 462.640625 98.667969 467.425781 98.367188 C 472.210938 98.066406 476.960938 99.359375 481.425781 101.101562 C 486.5 103.082031 491.535156 105.816406 494.65625 110.28125 C 498.453125 115.714844 498.820312 123.015625 496.921875 129.367188 C 495.765625 133.230469 491.820312 137.949219 488.910156 141.050781 Z M 488.910156 141.050781 "/>
<path style=" stroke:none;fill-rule:nonzero;fill:rgb(24.705882%,23.921569%,33.72549%);fill-opacity:1;" d="M 653.640625 404.722656 L 79.128906 404.722656 C 78.617188 404.722656 78.207031 404.304688 78.207031 403.796875 C 78.207031 403.285156 78.617188 402.867188 79.128906 402.867188 L 653.640625 402.867188 C 654.152344 402.867188 654.566406 403.285156 654.566406 403.796875 C 654.566406 404.304688 654.152344 404.722656 653.640625 404.722656 Z M 653.640625 404.722656 "/>
<path style=" stroke:none;fill-rule:nonzero;fill:rgb(100%,100%,100%);fill-opacity:1;" d="M 364.957031 319.714844 L 263.796875 319.714844 C 261.023438 319.730469 258.761719 317.496094 258.738281 314.71875 L 258.738281 88.722656 C 258.761719 85.945312 261.023438 83.710938 263.796875 83.726562 L 364.957031 83.726562 C 367.730469 83.710938 369.992188 85.945312 370.015625 88.722656 L 370.015625 314.71875 C 369.992188 317.496094 367.730469 319.730469 364.957031 319.714844 Z M 364.957031 319.714844 "/>
<path style=" stroke:none;fill-rule:nonzero;fill:rgb(80%,80%,80%);fill-opacity:1;" d="M 258.738281 156.851562 L 370.015625 156.851562 L 370.015625 158.410156 L 258.738281 158.410156 Z M 258.738281 156.851562 "/>
<path style=" stroke:none;fill-rule:nonzero;fill:rgb(80%,80%,80%);fill-opacity:1;" d="M 259.128906 245.726562 L 370.40625 245.726562 L 370.40625 247.285156 L 259.128906 247.285156 Z M 259.128906 245.726562 "/>
<path style=" stroke:none;fill-rule:nonzero;fill:rgb(80%,80%,80%);fill-opacity:1;" d="M 293.753906 83.726562 L 295.3125 83.726562 L 295.3125 320.496094 L 293.753906 320.496094 Z M 293.753906 83.726562 "/>
<path style=" stroke:none;fill-rule:nonzero;fill:rgb(80%,80%,80%);fill-opacity:1;" d="M 332.664062 83.726562 L 334.21875 83.726562 L 334.21875 320.496094 L 332.664062 320.496094 Z M 332.664062 83.726562 "/>
</g>
</svg>
